Simulation
nRows=42
nColumns=15
endheader
time  TH_x TH_y TH_z SC_y  SC_z  SC_x  AC_y  AC_z  AC_x  GH_y  GH_z  GH_yy  EL_x  PS_y
1.3999999999999986  0.000000  0.000000  0.000000  -32.88423042607878  10.486691941003464  32.70810066992687  52.05177015400981  10.523118074498326  7.813856566325318  0.4982834451000779  57.49758214433316  7.337018548661228  13.738685500387152  120.000000
1.4279999999999986  0.000000  0.000000  0.000000  -32.987690562028185  10.536397614207385  33.101045310664915  52.13123970662186  10.280778586295954  7.803588216591614  0.4775244150960511  57.5900755886676  7.407828728293097  13.701951781307574  120.000000
1.4559999999999986  0.000000  0.000000  0.000000  -33.032421072213126  10.566625411494199  33.38664821009126  52.20206387013402  10.062819944266405  7.7030793405448845  0.5272127119457005  57.621255546553876  7.48447019558204  13.613239173609767  120.000000
1.4839999999999987  0.000000  0.000000  0.000000  -33.020204193280726  10.571594510930641  33.56935041778836  52.264390995517516  9.873372778585738  7.514869987887198  0.6392776334563792  57.57504620400401  7.559140736171862  13.490234440763151  120.000000
1.5119999999999985  0.000000  0.000000  0.000000  -32.95128725427281  10.54758560368516  33.64742184135538  52.3184580131621  9.715447474135145  7.241331968330949  0.8069231712047705  57.4353235862234  7.619850907495648  13.348191971251879  120.000000
1.5399999999999985  0.000000  0.000000  0.000000  -32.83197897912811  10.493333083177637  33.62200542221651  52.36539000322826  9.589533333358338  6.8841446500970696  1.0267123936023246  57.183898502640965  7.6523766722051825  13.198877062509291  120.000000
1.5679999999999985  0.000000  0.000000  0.000000  -32.66540745286457  10.407849906832764  33.488050998436115  52.40505872989529  9.495772837195108  6.445647361883343  1.2973221036691494  56.80574124023285  7.64074525819381  13.050598427323811  120.000000
1.5959999999999985  0.000000  0.000000  0.000000  -32.459325749042  10.293227446863717  33.24283410278938  52.437556799220026  9.432642800212822  5.930494982780693  1.6204983120271523  56.28780040890966  7.569817817226564  12.909319806947323  120.000000
1.6239999999999983  0.000000  0.000000  0.000000  -32.21701744592228  10.150212884358465  32.88011713875104  52.46239807719445  9.398320401275226  5.34650767145616  1.999001997739453  55.62425062615009  7.4267194740218025  12.779324734723433  120.000000
1.6519999999999984  0.000000  0.000000  0.000000  -31.945356629611418  9.981225856354069  32.39832541286198  52.47945336363296  9.38930512812298  4.704890652898752  2.4350227216916203  54.81356483303552  7.203968949215592  12.663393442212218  120.000000
1.6799999999999984  0.000000  0.000000  0.000000  -31.647407239567226  9.78644179945966  31.79258056914876  52.48902351437752  9.402236959616678  4.020494071238863  2.9285955469455924  53.86267826142218  6.900633514666619  12.562976729447799  120.000000
1.7079999999999984  0.000000  0.000000  0.000000  -31.329762766565494  9.566861996495144  31.06493724165821  52.4926280791273  9.431725989911769  3.310754307071922  3.4783057536026694  52.78255061224501  6.522529656331426  12.47859764959768  120.000000
1.7359999999999982  0.000000  0.000000  0.000000  -30.996333808072208  9.32236828073092  30.21533779860238  52.492479773654665  9.471290625401242  2.5944599503101102  4.081265855242113  51.59162607703521  6.081995072424665  12.410169462261749  120.000000
1.7639999999999982  0.000000  0.000000  0.000000  -30.65529722145676  9.054005021803743  29.25203455886965  52.490609947312585  9.511985786049056  1.8902873380389982  4.7336864050670675  50.30913977687478  5.596936120185701  12.357111074295211  120.000000
1.7919999999999983  0.000000  0.000000  0.000000  -30.31277263715687  8.762720820001041  28.179392730765553  52.4876212836564  9.54568924740653  1.2172211130732526  5.431236578735707  48.95864083976865  5.090127152289667  12.318605979892789  120.000000
1.8199999999999983  0.000000  0.000000  0.000000  -29.978424280894274  8.451376081592285  27.0094803562835  52.48202379014287  9.563917618844302  0.5930855788200904  6.169216426258998  47.56079178488165  4.587703654451421  12.293663083609644  120.000000
1.8479999999999983  0.000000  0.000000  0.000000  -29.658228337486293  8.123092249729735  25.750217252314215  52.46968023789104  9.561417547374734  0.03497467753457445  6.941912368694112  46.13639626845361  4.11830689017924  12.281076520009456  120.000000
1.8759999999999981  0.000000  0.000000  0.000000  -29.358598241214526  7.783062327732384  24.417228246037084  52.444428832492754  9.534185339981747  -0.44305982583114933  7.741376500757556  44.69980725813727  3.711687636810032  12.278992225047151  120.000000
1.9039999999999981  0.000000  0.000000  0.000000  -29.080167859239772  7.4371958213844245  23.023081513012666  52.39930661046398  9.482510322196635  -0.8291175590576577  8.558029307844425  43.26256206032  3.3961430856082866  12.284894501989124  120.000000
1.9319999999999982  0.000000  0.000000  0.000000  -28.82124190834636  7.093937030815105  21.588570280479352  52.32794146651902  9.407010722889664  -1.1166883160815946  9.379898150366309  41.829009000495304  3.1971202361662514  12.294824752191733  120.000000
1.9599999999999982  0.000000  0.000000  0.000000  -28.57495419054891  6.761742881970936  20.130580303825113  52.22575411575082  9.310475096031386  -1.3032850565533323  10.194337637524425  40.39989202832839  3.134036927326079  12.303605082685058  120.000000
1.987999999999998  0.000000  0.000000  0.000000  -28.333167963362662  6.449788590710814  18.6700500082143  52.090337837785405  9.194705209476874  -1.3921399426300096  10.987323018480883  38.97030433675908  3.2208475920500885  12.304524093698664  120.000000
2.0159999999999982  0.000000  0.000000  0.000000  -28.08537775357064  6.166331727008843  17.224206220040408  51.92224644567916  9.062652057668691  -1.3890646529174688  11.7478248367588  37.53469111621392  3.4620814288702237  12.291382165341451  120.000000
2.043999999999998  0.000000  0.000000  0.000000  -27.823653736738947  5.918922596610605  15.812519329182106  51.72459098403613  8.917483217837637  -1.3036135537619389  12.467410532415398  36.08690767723234  3.8550783369068795  12.259307236257124  120.000000
2.071999999999998  0.000000  0.000000  0.000000  -27.54148577506464  5.7126425231075  14.450510088451876  51.50229750804496  8.763940962765567  -1.147382390390595  13.14155668339317  34.62292143064911  4.388966508222723  12.206688246395396  120.000000
2.099999999999998  0.000000  0.000000  0.000000  -27.23930853065231  5.549056612572173  13.153065067214841  51.26257408682371  8.608669677607647  -0.9334078948207575  13.770375376491433  33.14118969155966  5.0467519326407775  12.13605540021864  120.000000
2.127999999999998  0.000000  0.000000  0.000000  -26.919568745974132  5.426827419987315  11.931303362426142  51.01431365330997  8.459584836784957  -0.6753598107962575  14.359060967465494  31.643204819054393  5.805327279150877  12.054469334811847  120.000000
2.155999999999998  0.000000  0.000000  0.000000  -26.592130296737036  5.340263158361901  10.79401576447039  50.76798321284994  8.326391568084434  -0.3863732651360027  14.917052544693142  30.13385144167258  6.6388154899786445  11.97194828346334  120.000000
2.183999999999998  0.000000  0.000000  0.000000  -26.266894281948833  5.281813870453675  9.746691883051202  50.53390107907666  8.218013909748926  -0.07890585031733949  15.455015757228486  28.619895120003648  7.52183524890854  11.899446645547323  120.000000
2.211999999999998  0.000000  0.000000  0.000000  -25.95764537436873  5.241716216102976  8.791068464086122  50.322143869044666  8.143228603752092  0.23647309834568303  15.983052906321346  27.110544651286315  8.433127217584339  11.846532482893483  120.000000
2.239999999999998  0.000000  0.000000  0.000000  -25.673991262123444  5.210670189060743  7.926545528572682  50.14125851437454  8.107568089263504  0.5509389279961134  16.507756628565275  25.61530833649765  9.358748620532234  11.820159975984497  120.000000
2.267999999999998  0.000000  0.000000  0.000000  -25.424023286888183  5.180341877259189  7.149055715628067  49.99816399175979  8.114529094870974  0.8589315786565109  17.031767043452664  24.145142640771585  10.292983233005383  11.823849364536235  120.000000
2.2959999999999976  0.000000  0.000000  0.000000  -25.209777835766626  5.144356913789738  6.453803279009973  49.89788103929567  8.16353300025229  1.1571954570506766  17.553272658512153  22.710584072509214  11.238115795319278  11.858810453013632  120.000000
2.3239999999999976  0.000000  0.000000  0.000000  -25.031931117777567  5.098288789485055  5.834575820759726  49.84102594458404  8.251952387436353  1.4464344200613501  18.062668982475753  21.322785764681594  12.205882434281689  11.92374519477725  120.000000
2.3519999999999976  0.000000  0.000000  0.000000  -24.88882711931295  5.041449628760554  5.287002142072886  49.8247463372431  8.375420941786224  1.728389182782639  18.541157515789944  19.99305534630587  13.217376967729969  12.016784355309097  120.000000
2.3799999999999977  0.000000  0.000000  0.000000  -24.777242575485936  4.978471522066896  4.803922656367229  49.847235353221066  8.5278722055234  2.0023929927980437  18.966213211100197  18.731488466297876  14.29643106586778  12.136155491029095  120.000000
2.4079999999999977  0.000000  0.000000  0.000000  -24.69171696064399  4.913182973280671  4.378335042204752  49.904862700245154  8.698837695030079  2.267416009442055  19.31371781005722  17.542870474978624  15.46664471677074  12.28170131205239  120.000000
2.4359999999999977  0.000000  0.000000  0.000000  -24.62566249298858  4.849673935737015  4.004268753342692  49.99243239242945  8.877466294890704  2.5245083404198394  19.5647346429174  16.429273207425577  16.74421090712076  12.454972946257623  120.000000
2.4639999999999977  0.000000  0.000000  0.000000  -24.568298146160213  4.79238433793809  3.6783677941367876  50.105924223270435  9.054391344960987  2.77523620719891  19.71469459592883  15.391547351942338  18.128662897063826  12.659363051224492  120.000000
2.4919999999999978  0.000000  0.000000  0.000000  -24.510372491895648  4.746387504189246  3.397490782023762  50.242214859863516  9.22263076405296  3.0206828347975665  19.768724467867813  14.429909276463277  19.607182189907206  12.898006334628905  120.000000
2.5199999999999974  0.000000  0.000000  0.000000  -24.443825350038814  4.71591467887888  3.1598259868861507  50.39698903708831  9.377287564628837  3.261276627502822  19.732692889232485  13.543484121980306  21.163458332129075  13.172482122215728  120.000000
2.5479999999999974  0.000000  0.000000  0.000000  -24.36587093387998  4.703776669175248  2.963742866369374  50.566276821660786  9.515705058297597  3.496875457476251  19.611857801135816  12.731139691524431  22.77971913065507  13.481561313590054  120.000000
